<svg width="29" height="28" viewBox="0 0 29 28" fill="none" xmlns="http://www.w3.org/2000/svg">
<path d="M6.45975 22.9744L0 28V1.4359C0 1.05507 0.152767 0.689848 0.424695 0.420565C0.696623 0.151282 1.06544 0 1.45 0H27.55C27.9346 0 28.3034 0.151282 28.5753 0.420565C28.8472 0.689848 29 1.05507 29 1.4359V21.5385C29 21.9193 28.8472 22.2845 28.5753 22.5538C28.3034 22.8231 27.9346 22.9744 27.55 22.9744H6.45975ZM2.9 22.0913L5.45635 20.1026H26.1V2.87179H2.9V22.0913ZM13.05 14.359H15.95V17.2308H13.05V14.359ZM13.05 5.74359H15.95V12.9231H13.05V5.74359Z" fill="#4AB862"/>
</svg>
